<svg height="419pt" viewBox="0 0 419.09088 419" width="419pt" xmlns="http://www.w3.org/2000/svg" xmlns:xlink="http://www.w3.org/1999/xlink"><linearGradient id="a"><stop offset="0" stop-color="#00efd1"/><stop offset="1" stop-color="#00acea"/></linearGradient><linearGradient id="b" gradientTransform="matrix(1 0 0 -1 -46.433973 467.42044)" gradientUnits="userSpaceOnUse" x1="206.4" x2="206.4" xlink:href="#a" y1="495.289" y2="13.659"/><linearGradient id="c" gradientTransform="matrix(1 0 0 -1 -46.433973 467.42044)" gradientUnits="userSpaceOnUse" x1="233.475" x2="233.475" xlink:href="#a" y1="495.289" y2="13.659"/><linearGradient id="d" gradientTransform="matrix(1 0 0 -1 -46.433973 467.42044)" gradientUnits="userSpaceOnUse" x1="281.9" x2="281.9" xlink:href="#a" y1="495.289" y2="13.659"/><linearGradient id="e" gradientTransform="matrix(1 0 0 -1 -46.433973 467.42044)" gradientUnits="userSpaceOnUse" x1="255.963" x2="255.963" xlink:href="#a" y1="495.289" y2="13.659"/><path d="m159.964844 225.21875c-15.242188 0-27.597656 12.359375-27.597656 27.601562 0 15.242188 12.355468 27.601563 27.597656 27.601563 15.246094 0 27.601562-12.359375 27.601562-27.601563-.03125-15.230468-12.371094-27.570312-27.601562-27.601562zm0 35.300781c-4.195313 0-7.597656-3.402343-7.597656-7.597656 0-4.199219 3.402343-7.601563 7.597656-7.601563 4.199218 0 7.601562 3.402344 7.601562 7.601563 0 4.195313-3.402344 7.597656-7.601562 7.597656zm0 0" fill="url(#b)"/><path d="m273.867188 130.519531h-135.300782l-2-11c-2.226562-12.324219-11.875-21.972656-24.199218-24.199219l-10.402344-1.800781c-5.4375-.964843-10.632813 2.660157-11.597656 8.101563-.96875 5.4375 2.660156 10.632812 8.097656 11.597656l10.402344 1.800781c4.09375.695313 7.304687 3.90625 8 8l14.097656 79.402344c2.167968 12.382813 12.929687 21.410156 25.5 21.398437h83.5c11.4375.058594 21.539062-7.4375 24.800781-18.398437l18.699219-61.902344c.871094-3.039062.320312-6.3125-1.5-8.898437-1.917969-2.550782-4.910156-4.066406-8.097656-4.101563zm-28.300782 69c-.738281 2.480469-3.011718 4.183594-5.601562 4.199219h-83.5c-2.878906.03125-5.347656-2.054688-5.796875-4.898438l-8.601563-48.300781h118.300782zm0 0" fill="url(#c)"/><path d="m235.464844 225.21875c-15.242188 0-27.597656 12.359375-27.597656 27.601562 0 15.242188 12.355468 27.601563 27.597656 27.601563 15.246094 0 27.601562-12.359375 27.601562-27.601563-.03125-15.230468-12.371094-27.570312-27.601562-27.601562zm0 35.300781c-4.195313 0-7.597656-3.402343-7.597656-7.597656 0-4.199219 3.402343-7.601563 7.597656-7.601563 4.199218 0 7.601562 3.402344 7.601562 7.601563 0 4.195313-3.402344 7.597656-7.601562 7.597656zm0 0" fill="url(#d)"/><path d="m326.167969 311.921875c66.441406-73.933594 63.410156-186.9375-6.902344-257.203125-72.898437-72.898438-191.5-72.898438-264.5 0-71.648437 71.652344-73.191406 187.332031-3.476563 260.867188 69.710938 73.53125 185.308594 78.160156 260.675782 10.433593l90 90c1.875 1.890625 4.4375 2.9375 7.101562 2.902344 2.652344-.011719 5.199219-1.050781 7.101563-2.902344 1.871093-1.867187 2.921875-4.402343 2.921875-7.050781 0-2.644531-1.050782-5.179688-2.921875-7.046875zm-139.101563 42c-79.644531-.023437-148.1875-56.300781-163.710937-134.417969-15.519531-78.117187 26.296875-156.324218 99.886719-186.792968 73.585937-30.46875 158.449218-4.71875 202.691406 61.507812 44.246094 66.226562 35.550781 154.484375-20.765625 210.800781-31.277344 31.390625-73.789063 48.996094-118.101563 48.902344zm0 0" fill="url(#e)"/></svg>